{
	"asset":{
		"generator":"Khronos glTF Blender I/O v4.1.63",
		"version":"2.0"
	},
	"extensionsUsed":[
		"KHR_materials_specular"
	],
	"scene":0,
	"scenes":[
		{
			"name":"Scene",
			"nodes":[
				0
			]
		}
	],
	"nodes":[
		{
			"mesh":0,
			"name":"18576_SUV_Taxi_new",
			"rotation":[
				0.7071068286895752,
				0,
				0,
				0.7071068286895752
			]
		}
	],
	"materials":[
		{
			"doubleSided":true,
			"extensions":{
				"KHR_materials_specular":{
					"specularFactor":0
				}
			},
			"name":"Standard_1",
			"pbrMetallicRoughness":{
				"baseColorFactor":[
					0.800000011920929,
					0.800000011920929,
					0.800000011920929,
					1
				],
				"metallicFactor":0
			}
		},
		{
			"doubleSided":true,
			"extensions":{
				"KHR_materials_specular":{
					"specularFactor":0
				}
			},
			"name":"Standard_2",
			"pbrMetallicRoughness":{
				"baseColorFactor":[
					0.800000011920929,
					0.800000011920929,
					0.800000011920929,
					1
				],
				"metallicFactor":0
			}
		}
	],
	"meshes":[
		{
			"name":"18576_SUV_Taxi_new",
			"primitives":[
				{
					"attributes":{
						"POSITION":0,
						"NORMAL":1,
						"TEXCOORD_0":2
					},
					"indices":3,
					"material":0
				},
				{
					"attributes":{
						"POSITION":4,
						"NORMAL":5,
						"TEXCOORD_0":6
					},
					"indices":7,
					"material":1
				}
			]
		}
	],
	"accessors":[
		{
			"bufferView":0,
			"componentType":5126,
			"count":36653,
			"max":[
				21.065799713134766,
				4.063700199127197,
				4.976600170135498
			],
			"min":[
				16.63409996032715,
				0.02160000056028366,
				-4.955900192260742
			],
			"type":"VEC3"
		},
		{
			"bufferView":1,
			"componentType":5126,
			"count":36653,
			"type":"VEC3"
		},
		{
			"bufferView":2,
			"componentType":5126,
			"count":36653,
			"type":"VEC2"
		},
		{
			"bufferView":3,
			"componentType":5123,
			"count":189519,
			"type":"SCALAR"
		},
		{
			"bufferView":4,
			"componentType":5126,
			"count":14187,
			"max":[
				21.014999389648438,
				3.6375999450683594,
				4.730899810791016
			],
			"min":[
				16.7189998626709,
				0.3125999867916107,
				-4.56220006942749
			],
			"type":"VEC3"
		},
		{
			"bufferView":5,
			"componentType":5126,
			"count":14187,
			"type":"VEC3"
		},
		{
			"bufferView":6,
			"componentType":5126,
			"count":14187,
			"type":"VEC2"
		},
		{
			"bufferView":7,
			"componentType":5123,
			"count":70638,
			"type":"SCALAR"
		}
	],
	"bufferViews":[
		{
			"buffer":0,
			"byteLength":439836,
			"byteOffset":0,
			"target":34962
		},
		{
			"buffer":0,
			"byteLength":439836,
			"byteOffset":439836,
			"target":34962
		},
		{
			"buffer":0,
			"byteLength":293224,
			"byteOffset":879672,
			"target":34962
		},
		{
			"buffer":0,
			"byteLength":379038,
			"byteOffset":1172896,
			"target":34963
		},
		{
			"buffer":0,
			"byteLength":170244,
			"byteOffset":1551936,
			"target":34962
		},
		{
			"buffer":0,
			"byteLength":170244,
			"byteOffset":1722180,
			"target":34962
		},
		{
			"buffer":0,
			"byteLength":113496,
			"byteOffset":1892424,
			"target":34962
		},
		{
			"buffer":0,
			"byteLength":141276,
			"byteOffset":2005920,
			"target":34963
		}
	],
	"buffers":[
		{
			"byteLength":2147196,
			"uri":"suv.bin"
		}
	]
}
