{
	"asset":{
		"generator":"Khronos glTF Blender I/O v4.1.63",
		"version":"2.0"
	},
	"scene":0,
	"scenes":[
		{
			"name":"Scene",
			"nodes":[
				0
			]
		}
	],
	"nodes":[
		{
			"mesh":0,
			"name":"fiat2_test",
			"rotation":[
				0.7071068286895752,
				0,
				0,
				0.7071068286895752
			]
		}
	],
	"meshes":[
		{
			"name":"fiat2_test",
			"primitives":[
				{
					"attributes":{
						"POSITION":0,
						"NORMAL":1
					},
					"indices":2
				}
			]
		}
	],
	"accessors":[
		{
			"bufferView":0,
			"componentType":5126,
			"count":7368,
			"max":[
				0.9593750238418579,
				1.845255970954895,
				0.7001219987869263
			],
			"min":[
				-0.5667909979820251,
				-2.0384669303894043,
				-0.6937289834022522
			],
			"type":"VEC3"
		},
		{
			"bufferView":1,
			"componentType":5126,
			"count":7368,
			"type":"VEC3"
		},
		{
			"bufferView":2,
			"componentType":5123,
			"count":8571,
			"type":"SCALAR"
		}
	],
	"bufferViews":[
		{
			"buffer":0,
			"byteLength":88416,
			"byteOffset":0,
			"target":34962
		},
		{
			"buffer":0,
			"byteLength":88416,
			"byteOffset":88416,
			"target":34962
		},
		{
			"buffer":0,
			"byteLength":17142,
			"byteOffset":176832,
			"target":34963
		}
	],
	"buffers":[
		{
			"byteLength":193976,
			"uri":"fiat_scale.bin"
		}
	]
}
