{
	"asset":{
		"generator":"Khronos glTF Blender I/O v4.1.63",
		"version":"2.0"
	},
	"extensionsUsed":[
		"KHR_materials_specular"
	],
	"scene":0,
	"scenes":[
		{
			"name":"Scene",
			"nodes":[
				0
			]
		}
	],
	"nodes":[
		{
			"mesh":0,
			"name":"18552_Minivan_v1_NEW",
			"rotation":[
				0.7071068286895752,
				0,
				0,
				0.7071068286895752
			]
		}
	],
	"materials":[
		{
			"doubleSided":true,
			"extensions":{
				"KHR_materials_specular":{
					"specularFactor":0
				}
			},
			"name":"_18552_Minivan_v1_NEW_18552_Minivan_v1default",
			"pbrMetallicRoughness":{
				"baseColorFactor":[
					0.800000011920929,
					0.800000011920929,
					0.800000011920929,
					1
				],
				"metallicFactor":0
			}
		}
	],
	"meshes":[
		{
			"name":"18552_Minivan_v1_NEW",
			"primitives":[
				{
					"attributes":{
						"POSITION":0,
						"NORMAL":1,
						"TEXCOORD_0":2
					},
					"indices":3,
					"material":0
				}
			]
		}
	],
	"accessors":[
		{
			"bufferView":0,
			"componentType":5126,
			"count":38843,
			"max":[
				1.576200008392334,
				4.246399879455566,
				2.5343000888824463
			],
			"min":[
				-8.415300369262695,
				0.0908999964594841,
				-2.687700033187866
			],
			"type":"VEC3"
		},
		{
			"bufferView":1,
			"componentType":5126,
			"count":38843,
			"type":"VEC3"
		},
		{
			"bufferView":2,
			"componentType":5126,
			"count":38843,
			"type":"VEC2"
		},
		{
			"bufferView":3,
			"componentType":5123,
			"count":216813,
			"type":"SCALAR"
		}
	],
	"bufferViews":[
		{
			"buffer":0,
			"byteLength":466116,
			"byteOffset":0,
			"target":34962
		},
		{
			"buffer":0,
			"byteLength":466116,
			"byteOffset":466116,
			"target":34962
		},
		{
			"buffer":0,
			"byteLength":310744,
			"byteOffset":932232,
			"target":34962
		},
		{
			"buffer":0,
			"byteLength":433626,
			"byteOffset":1242976,
			"target":34963
		}
	],
	"buffers":[
		{
			"byteLength":1676604,
			"uri":"minivan.bin"
		}
	]
}
