{
	"asset":{
		"generator":"Khronos glTF Blender I/O v4.1.63",
		"version":"2.0"
	},
	"scene":0,
	"scenes":[
		{
			"name":"Scene",
			"nodes":[
				0
			]
		}
	],
	"nodes":[
		{
			"mesh":0,
			"name":"PASSAT_OBJ2",
			"rotation":[
				0,
				0,
				1,
				4.371138473402425e-08
			],
			"scale":[
				0.03500000014901161,
				0.03500000014901161,
				0.03500000014901161
			],
			"translation":[
				0,
				0,
				0.5899997353553772
			]
		}
	],
	"meshes":[
		{
			"name":"PASSAT_OBJ2.001",
			"primitives":[
				{
					"attributes":{
						"POSITION":0,
						"NORMAL":1,
						"COLOR_0":2
					},
					"indices":3
				}
			]
		}
	],
	"accessors":[
		{
			"bufferView":0,
			"componentType":5126,
			"count":24854,
			"max":[
				33.58806228637695,
				54.20572280883789,
				74.19319152832031
			],
			"min":[
				-33.69933319091797,
				0.7943208813667297,
				-103.25444793701172
			],
			"type":"VEC3"
		},
		{
			"bufferView":1,
			"componentType":5126,
			"count":24854,
			"type":"VEC3"
		},
		{
			"bufferView":2,
			"componentType":5126,
			"count":24854,
			"type":"VEC3"
		},
		{
			"bufferView":3,
			"componentType":5123,
			"count":131142,
			"type":"SCALAR"
		}
	],
	"bufferViews":[
		{
			"buffer":0,
			"byteLength":298248,
			"byteOffset":0,
			"target":34962
		},
		{
			"buffer":0,
			"byteLength":298248,
			"byteOffset":298248,
			"target":34962
		},
		{
			"buffer":0,
			"byteLength":298248,
			"byteOffset":596496,
			"target":34962
		},
		{
			"buffer":0,
			"byteLength":262284,
			"byteOffset":894744,
			"target":34963
		}
	],
	"buffers":[
		{
			"byteLength":1157028,
			"uri":"passat_scale.bin"
		}
	]
}
