{
	"asset":{
		"generator":"Khronos glTF Blender I/O v3.6.27",
		"version":"2.0"
	},
	"scene":0,
	"scenes":[
		{
			"name":"Scene",
			"nodes":[
				0
			]
		}
	],
	"nodes":[
		{
			"mesh":0,
			"name":"PASSAT_OBJ2",
			"rotation":[
				0,
				0,
				1,
				4.371138473402425e-08
			],
			"scale":[
				0.03500000014901161,
				0.03500000014901161,
				0.03500000014901161
			],
			"translation":[
				0,
				0,
				0.5899997353553772
			]
		}
	],
	"meshes":[
		{
			"name":"PASSAT_OBJ2",
			"primitives":[
				{
					"attributes":{
						"COLOR_0":0,
						"POSITION":1,
						"NORMAL":2
					},
					"indices":3
				}
			]
		}
	],
	"accessors":[
		{
			"bufferView":0,
			"componentType":5123,
			"count":27577,
			"normalized":true,
			"type":"VEC4"
		},
		{
			"bufferView":1,
			"componentType":5126,
			"count":27577,
			"max":[
				35.532649993896484,
				54.20572280883789,
				74.19319152832031
			],
			"min":[
				-35.728023529052734,
				0.7943208813667297,
				-103.25444793701172
			],
			"type":"VEC3"
		},
		{
			"bufferView":2,
			"componentType":5126,
			"count":27577,
			"type":"VEC3"
		},
		{
			"bufferView":3,
			"componentType":5123,
			"count":146463,
			"type":"SCALAR"
		}
	],
	"bufferViews":[
		{
			"buffer":0,
			"byteLength":220616,
			"byteOffset":0,
			"target":34962
		},
		{
			"buffer":0,
			"byteLength":330924,
			"byteOffset":220616,
			"target":34962
		},
		{
			"buffer":0,
			"byteLength":330924,
			"byteOffset":551540,
			"target":34962
		},
		{
			"buffer":0,
			"byteLength":292926,
			"byteOffset":882464,
			"target":34963
		}
	],
	"buffers":[
		{
			"byteLength":1175392,
			"uri":"data:application/octet-stream;base64,"
		}
	]
}
